<svg width="32" height="32" viewBox="0 0 32 32" fill="none" xmlns="http://www.w3.org/2000/svg">
  <rect width="32" height="32" rx="8" fill="#004642"/>
  <g transform="translate(6, 6)">
    <path d="M2 4.5 L2 15.5 L6 15.5 L6 9.5 L10 9.5 L10 15.5 L14 15.5 L14 4.5 L10 4.5 L10 7.5 L6 7.5 L6 4.5 Z" fill="#00AC3C"/>
    <path d="M16 4.5 L16 15.5 L20 15.5 L20 4.5 Z M18 6.5 L18 8.5 L18 6.5 Z" fill="#00AC3C"/>
    <path d="M2 17.5 L2 19.5 L8 19.5 L8 17.5 Z M10 17.5 L10 19.5 L16 19.5 L16 17.5 Z" fill="#00AC3C"/>
  </g>
</svg>